<svg width="33" height="33" viewBox="0 0 33 33" fill="none" xmlns="http://www.w3.org/2000/svg">
<rect x="0.871094" y="0.292969" width="32" height="32" rx="2" fill="#FD9824"/>
<path fill-rule="evenodd" clip-rule="evenodd" d="M14.0916 19.2352C14.0916 18.9736 13.8628 18.7448 13.6013 18.7448H8.69742C8.43588 18.7448 8.20703 18.9736 8.20703 19.2352V22.8313C8.20703 23.0929 8.43588 23.3217 8.69742 23.3217H13.6013C13.8628 23.3217 14.0916 23.0929 14.0916 22.8313V19.2352ZM10.2013 14.1679H8.59934C8.27242 14.1679 8.10895 14.4621 8.30511 14.6255L10.9205 17.339C11.0513 17.4371 11.2474 17.4371 11.3782 17.339L13.9936 14.6255C14.1897 14.4294 14.0263 14.1679 13.6993 14.1679H12.1628C12.1628 12.5332 13.7647 10.8986 15.3993 10.8986V8.93709C12.457 8.93709 10.2013 11.2255 10.2013 14.1679ZM21.2186 13.6121C21.0878 13.514 20.8916 13.514 20.7609 13.6121L18.1455 16.3255C17.9493 16.5217 18.1128 16.7832 18.4397 16.7832H20.009C20.009 18.7448 18.6686 20.0525 16.707 20.0525V22.014C19.6493 22.014 21.9705 19.7255 21.9705 16.7832H23.5724C23.8993 16.7832 24.0628 16.489 23.8666 16.3255L21.2186 13.6121V13.6121ZM23.8993 8.11978C23.8993 7.85824 23.6705 7.62939 23.409 7.62939H18.5051C18.2436 7.62939 18.0147 7.85824 18.0147 8.11978V11.7159C18.0147 11.9775 18.2436 12.2063 18.5051 12.2063H23.409C23.6705 12.2063 23.8993 11.9775 23.8993 11.7159V8.11978Z" fill="white"/>
</svg>
